<?xml version="1.0" encoding="iso-8859-1"?>
<!-- Generator: Adobe Illustrator 19.0.0, SVG Export Plug-In . SVG Version: 6.00 Build 0)  -->
<svg version="1.1" id="Capa_1" xmlns="http://www.w3.org/2000/svg" xmlns:xlink="http://www.w3.org/1999/xlink" x="0px" y="0px"
	 viewBox="0 0 512 512" style="enable-background:new 0 0 512 512;" xml:space="preserve">
<g>
	<g>
		<path d="M437,31H75C33.645,31,0,64.645,0,106v300c0,41.355,33.645,75,75,75h362c41.355,0,75-33.645,75-75V106
			C512,64.645,478.355,31,437,31z M332,121.107h90v45h-90V121.107z M332,196.107h90v45h-90V196.107z M332,271.107h90v45h-90V271.107
			z M332,346.107h90v45h-90V346.107z M30,106c0-24.813,20.187-45,45-45h105v30.107H60v225H30V106z M90,241.107v-45h90v45H90z
			 M180,271.107v45H90v-45H180z M90,166.107v-45h90v45H90z M302,451H75c-24.813,0-45-20.187-45-45v-59.893h30v75h242V451z
			 M302,391.107H90v-45h120v-225h92V391.107z M302,91.107h-92V61h92V91.107z M482,406c0,24.813-20.187,45-45,45H332v-29.893h120
			v-330H332V61h105c24.813,0,45,20.187,45,45V406z"/>
	</g>
</g>
<g>
</g>
<g>
</g>
<g>
</g>
<g>
</g>
<g>
</g>
<g>
</g>
<g>
</g>
<g>
</g>
<g>
</g>
<g>
</g>
<g>
</g>
<g>
</g>
<g>
</g>
<g>
</g>
<g>
</g>
</svg>
